<?xml version="1.0" encoding="utf-8"?>
<!-- Generator: Adobe Illustrator 22.1.0, SVG Export Plug-In . SVG Version: 6.00 Build 0)  -->
<svg version="1.1" id="Layer_1" xmlns="http://www.w3.org/2000/svg" xmlns:xlink="http://www.w3.org/1999/xlink" x="0px" y="0px"
	 viewBox="0 0 2500 2499" style="enable-background:new 0 0 2500 2499;" xml:space="preserve">
<style type="text/css">
	.st0{fill:#DB933A;}
	.st1{fill:#CA3132;}
	.st2{fill:none;}
	.st3{fill:#E6E7E8;stroke:#231F20;stroke-width:6;stroke-linecap:round;stroke-miterlimit:10;}
</style>
<path class="st0" d="M46,1991.6c-13.5,0.2-18.6,0.7-22.4,1.2c-3.8,0.6-6.2,1.2-8.2,1.9c-4.2,1.6-6.9,2.6-10.3,7.7
	c-2.8,5.1-2.8,8.7-2.7,13.9c0.1,2.3,0.5,5.1,1.1,8.5c0.7,3.4,1.7,7.5,3.4,12.8c2,6.2,4.2,12.3,6.7,18.3c15.6,33.2,35.3,64.4,58,91.8
	s48.5,50.9,76.3,72.3c27.8,21.5,57.5,41,89.4,58.6s66.1,33.6,102.7,48.1c37.6,14.8,76,27.6,115,38.1
	c125.8,33.3,254.8,53.6,445.4,63.9c190.6,10.4,442.9,10.9,651.8-1.1s374.4-36.2,536.7-74.8c49-12.9,96.9-29.8,139-48.5
	c42.1-18.7,78.2-39.4,110.5-62.2s60.6-48,86.3-78.4c25.7-30.5,48.7-66.3,66.9-104.4c7.7-17.5,14.5-35.7,1.6-52.6
	c-1.4-1.6-2.9-3-4.5-4.3c-2.1-1.6-4.3-3-6.7-4.2c-2.7-1.4-6-2.8-11.1-4c-5.1-1.2-11.9-2.1-18.7-2.4h-2349
	C81.3,1991.5,59.4,1991.5,46,1991.6z M2424.9,613.9c14.1-0.7,28.2-2,37.1-3.4c8.9-1.3,12.7-2.7,15.8-4c3.1-1.3,5.5-2.5,7.5-3.8
	c10.8-7.8,12-14.8,13.6-22.5c0.5-2.8,0.7-6,0.8-9.8c0-4.6-0.3-9.2-0.9-13.7c-0.7-5.5-1.8-12-3.7-20.3c-2.2-9.5-4.8-18.9-7.7-28.2
	c-6.1-19.7-14.8-38.5-29.3-61.6c-14.4-23.1-34.6-50.4-62.9-80.9s-64.5-64-103.8-94.7c-39.7-30.9-81.8-58.5-126-82.6
	c-78.3-41.7-161.4-74.2-270.1-102.8s-243.1-53.6-394-66.3s-318.2-13.1-470.8-1C877.9,30.4,740.1,55.1,628.3,83.8
	c-111.8,28.7-197.6,61.5-278.7,103.8c-41.2,21.4-81.4,44.9-116.7,68c-35.3,23.1-65.7,45.9-92.4,68.3c-26.7,22.4-49.7,44.4-70.1,70.9
	c-20.4,26.5-38.2,57.6-52,90.3c-4.1,9.3-7.8,18.8-10.9,28.5c-2.8,8.8-4.6,16.3-5.7,23c-1,5.8-1.5,11.7-1.6,17.6
	c0,4.7,0.4,9.3,1.2,13.9c2.2,10.3,5.5,19.1,15.9,28.5c2.8,2.5,6.1,4.8,9.9,6.9s8.3,4,13.5,5.7c5.3,1.7,11.4,3.1,18.9,4.1
	c7.5,1,16.3,1.5,25.2,1.5L2424.9,613.9L2424.9,613.9z"/>
<path class="st1" d="M2028.4,1222.8c0.9,4.5,2,8.7,3.2,12.5c1.3,3.8,2.7,7.2,4.2,10.2c1.5,3,3.1,5.6,4.8,7.9
	c9.5,12.6,19,15.5,28.7,15.7h292.4c9.5-0.2,19-3,28.4-15.7c1.8-2.4,3.4-5.1,4.8-7.9c1.5-3,2.9-6.4,4.2-10.2c1.3-3.8,2.4-8,3.2-12.5
	c1.7-9,2.4-19.5,1.8-29.5c-0.3-4.8-0.9-9.6-1.8-14.4c-0.9-4.5-2-8.7-3.2-12.5c-1.2-3.5-2.6-6.9-4.2-10.2c-1.5-3-3.1-5.6-4.8-7.9
	c-9.4-12.5-18.8-15.4-28.4-15.7h-179.5V731.2c-0.2-15.2-3.5-30.4-17.9-45.6c-2.8-2.8-5.8-5.4-9-7.6c-3.4-2.4-7.3-4.7-11.6-6.8
	c-4.3-2-9.1-3.8-14.3-5.2c-10.3-2.8-22.3-3.9-33.8-2.9c-5.5,0.5-11,1.4-16.4,2.9c-5.2,1.4-10,3.2-14.3,5.2c-4,1.9-7.9,4.1-11.7,6.8
	c-3.4,2.4-6.4,5-9,7.6c-14.3,15-17.7,30.1-17.9,45.6v469.4c0,2.6,0.1,5.3,0.2,8C2026.9,1213.5,2027.5,1218.3,2028.4,1222.8z"/>
<path class="st1" d="M620.4,1196.3c1.6,5.7,3.9,11.4,7,16.8c3,5.4,6.7,10.4,10.8,14.9c18.7,19.6,38.6,25,58.6,25.2h242.4
	c13.3-0.3,26.5-3.1,40-18.4c17.9-23.4,21.1-50.6,11.8-80.5c-1.5-4.4-3.3-8.3-5.3-11.8c-1.8-3.3-4-6.4-6.4-9.3
	c-13.1-15.2-26.4-18.4-40-18.8l-136.7-0.8l0.5-91.9l108.3,0.5c15.6-0.4,31.6-3,47.5-21.8c17.5-23.9,21.1-52.6,7-83.3
	c-1.9-3.8-4.2-7.4-6.9-10.7c-15.5-18.5-31.1-21.6-47.5-22.1l-109.9,0v-81.6l125.2,0.3c14-0.5,28.3-3.7,42.6-17
	c3-2.9,5.8-6.2,8.3-9.9c14.2-22,17.8-48.3,6.8-76.3c-1.8-4.2-4.1-8.3-6.8-12.1c-16.2-21.3-32.8-24.4-50.2-25H696.8
	c-12.6,0-25.7,2.3-38.2,8.3c-5.9,2.8-11.4,6.4-16.3,10.5c-16.9,14.6-24.4,33-24.5,50.5l0.3,447.4
	C618.1,1185.1,618.8,1190.6,620.4,1196.3z"/>
<path class="st1" d="M328.6,1489.1c11.6-0.5,23.5-3.7,35.3-17.1c2.5-2.9,4.8-6.2,6.9-9.9c11.8-22.1,14.8-48.4,5.6-76.4
	c-1.5-4.3-3.4-8.3-5.6-12.2c-13.4-21.4-27.2-24.4-41.6-25H138.3c-10.4,0-21.3,2.3-31.6,8.3c-4.9,2.8-9.4,6.4-13.5,10.6
	C79.2,1382,73,1400.4,73,1418l0.2,448.2c0,5.6,0.6,11.1,1.9,16.8c1.3,5.7,3.2,11.4,5.8,16.9c2.5,5.4,5.6,10.5,8.9,14.9
	c15.5,19.6,32,25,48.5,25.3h49c0.4-2.1,2-4,4.7-4c3.9-0.1,7.7-0.6,11.4-1.4c14.2-12.6,16.2-33.5,19.5-52.1
	c-0.2-26.5-0.8-53.1,1.1-79.5c0.1-1.6,0.8-2.8,1.8-3.6l0.4-91.4l89.7,0.5c12.9-0.4,26.1-3,39.3-21.8c14.5-24,17.5-52.7,5.8-83.4
	c-1.6-3.8-3.5-7.4-5.7-10.8c-12.8-18.5-25.7-21.7-39.3-22.1l-91,0v-81.7L328.6,1489.1z"/>
<path class="st1" d="M1513.7,1028.9c-2.9-9.1-6.9-17.9-11.9-26.1c-9.7-14-20.5-27.3-29.2-36.4c-8.7-9.2-15.5-14.2-22.6-18.7
	c-7.1-4.6-14.6-8.6-22.4-12.1c11-7.2,21.5-15.3,29.5-22.5c14.9-13.6,22.8-25.1,29.3-36.9c5.3-9.9,9.1-20.5,11.2-31.6
	c3.7-21.5,3-52.8-6.6-80.4c-4.5-13.1-10.9-25.3-20.5-37.8c-5.6-7.4-12-14-19.3-19.8c-8.9-7.1-21-15.1-33.7-21.8
	c-7.3-3.8-14.9-6.9-22.7-9.4c-10.2-3.3-20.6-5.9-31.2-7.7c-13.9-2.4-27.9-4.1-42-5h-169.4c-11,0-22.1,0.9-31.6,2.6
	c-9.5,1.7-17.6,4.1-24.5,7.1c-6.9,3-12.8,6.5-17.9,10.6c-5,4-9.3,8.7-12.9,14c-7.9,11.4-11.5,26.6-11.5,41.7v439.7
	c0,4.3,0.2,8.6,0.6,12.6c1.9,14.7,5.2,29.5,21.4,43.6c2.6,2.2,5.5,4.2,9,6.1c3.5,1.9,7.5,3.8,12.4,5.5s10.8,3.5,20.2,4.7
	c9.4,1.3,22.4,2.1,35.4,2.1h180.1c12.2,0,24.4-0.8,35.9-2.3c23.7-3.5,42.3-7.9,63-19.1c10.7-5.9,22.2-14.1,32.8-23.4
	c25.7-23.2,39.5-46.5,48-69.8c2.5-7.1,4.7-14.6,6.3-22.6c1.7-8.5,2.7-17.1,3.1-25.7c0.4-9.2,0.1-19.2-1.2-29.8
	C1519.2,1050,1516.8,1038.8,1513.7,1028.9z M1230.3,780.4L1230.3,780.4l43.9,0.5c15.8,0.5,30.5,3.6,44.8,19.2
	c2.9,3.3,5.3,7,7.3,10.8c11.3,24.3,8.2,47-7.6,65.9c-15.1,15.7-30.1,17.6-44.6,17.8l-44-0.6V780.4z M1335.3,1103.2
	c-2.7,4.3-5.8,8.3-9.4,11.8c-18,16.7-35.9,18.6-53.1,17.6l-42.4-0.4v-128.9l52.7-0.1c17.5,1.4,33.8,4.9,49.5,23.6
	c2.9,3.7,5.4,7.9,7.5,12.6c2.1,4.7,3.6,9.8,4.6,15.2C1347.4,1071.8,1344.1,1088.9,1335.3,1103.2z"/>
<path class="st1" d="M2387.9,1370.9c-2.6-2.8-5.4-5.3-8.3-7.5c-3.4-2.6-7-4.8-10.8-6.7c-13.4-6.7-28.7-9.3-44.2-7.9
	c-5.1,0.5-10.1,1.4-15.1,2.8c-4.5,1.3-8.9,3-13.1,5.1c-3.7,1.8-7.3,4.1-10.7,6.6c-2.9,2.2-5.7,4.7-8.3,7.5
	c-13.2,14.9-16.2,29.8-16.4,45.1v196.7c-45.3-66.5-90.6-133-116.8-171.4c-26.2-38.4-33.2-48.9-38.3-56c-5.1-7.1-8.1-10.8-11.5-14.3
	c-3.4-3.4-7.1-6.6-11.2-9.4c-4.3-2.9-8.8-5.3-13.5-7.2c-15.6-6.2-33.1-7.1-51-1.5c-5.6,1.8-11,4.2-16.2,7.2c-4.6,2.7-9,6-13,9.8
	c-15.3,14.9-19.9,30.6-20,45.9l1.1,456.7c0,3.4,0.2,6.8,0.6,10c1.7,11.8,5.4,23.3,16,35.1c2.4,2.6,5.1,5.1,8.2,7.4
	c3.1,2.4,6.7,4.6,10.6,6.6c13.2,6.5,28.2,9.1,43.5,7.7c5-0.5,10-1.4,14.9-2.8c4.4-1.3,8.8-3,13-5.1c3.7-1.9,7.3-4.1,10.7-6.7
	c2.9-2.2,5.7-4.7,8.3-7.5c13.3-14.9,16.4-29.9,16.6-45.4v-209.7l156.2,242c21.9,30.6,43.9,36.8,66.3,35.2c9.2-0.9,19.4-4,29.3-9.5
	c4.8-2.7,9.4-6,13.8-9.8c16.3-14.2,24.9-32,25.9-47.4l0-456.8C2404.3,1401.1,2401.3,1386,2387.9,1370.9z"/>
<path class="st1" d="M1454.4,1363.3c-3-2.4-6.5-4.6-10.3-6.6c-3.9-2-8.1-3.7-12.7-5.1c-9.2-2.7-19.8-3.8-30-2.8
	c-4.9,0.5-9.8,1.4-14.6,2.8c-4.6,1.4-8.9,3.1-12.7,5.1c-3.6,1.8-7.1,4-10.4,6.6c-3,2.4-5.7,4.9-8,7.4
	c-12.7,14.6-15.7,29.3-15.9,44.5v457.4c0,3.4,0.2,6.7,0.6,10c1.6,11.8,5.2,23.3,15.4,35c2.3,2.6,5,5.1,8,7.5
	c3.3,2.6,6.8,4.8,10.4,6.6c12.9,6.7,27.6,9.3,42.6,7.9c5.1-0.5,10-1.5,14.6-2.8c4.6-1.4,8.8-3.1,12.7-5.1c3.9-2,7.3-4.2,10.4-6.6
	c3-2.4,5.7-4.9,8-7.5c12.8-14.8,15.8-29.7,16-45v-457.4c-0.2-14.8-3.1-29.7-15.9-44.5C1459.9,1368,1457.2,1365.5,1454.4,1363.3z"/>
<path class="st1" d="M1972.9,1154.3c-1.5-4.4-3.3-8.3-5.3-11.8c-1.8-3.3-4-6.4-6.4-9.3c-13.1-15.2-26.4-18.4-40.1-18.8l-136.7-0.8
	l0.5-91.9l108.3,0.5c15.6-0.4,31.6-3,47.5-21.8c17.5-23.9,21.1-52.6,7-83.3c-1.9-3.8-4.2-7.4-6.9-10.7
	c-15.5-18.5-31.1-21.6-47.5-22.1l-109.9,0v-81.6l125.2,0.3c14-0.5,28.4-3.7,42.6-17c3-2.9,5.8-6.2,8.3-9.9
	c14.2-22,17.8-48.3,6.8-76.3c-1.8-4.2-4.1-8.3-6.8-12.1c-16.2-21.3-32.8-24.4-50.2-25h-230.6c-12.6,0-25.7,2.3-38.2,8.3
	c-5.9,2.8-11.4,6.4-16.3,10.5c-16.9,14.6-24.4,33-24.5,50.5l0.3,447.4c0,5.6,0.7,11.1,2.3,16.8c1.6,5.7,3.9,11.4,7,16.8
	c3,5.4,6.7,10.4,10.8,14.9c18.7,19.6,38.6,25,58.6,25.2h242.4c13.3-0.3,26.5-3.1,40-18.4C1979,1211.5,1982.2,1184.3,1972.9,1154.3z"
	/>
<path class="st1" d="M446.3,997.5c0.3,0.1,0.5,0.1,2.2-0.5c5.7-1.7,21.3-10.2,33.4-21.5c44.1-43.1,51.2-86.2,54.8-129.3
	c2.9-36.8-5-72.7-34.1-111.2c-8.6-11.1-18.4-21.3-29.2-30.3c-31.6-26.5-71.1-42.1-105.5-41.9h-222c-15.8,0.5-31.9,2.5-47.4,20.8
	c-2.2,2.7-4.3,5.9-6.3,9.8c-2.5,4.6-4.4,9.6-5.8,14.7c-1.7,6.2-2.9,14.2-3.5,22.2v460.5c0,3.2,0.2,6.3,0.7,9.4
	c1.8,10.9,6.1,21.7,18.3,32.4c2.8,2.4,5.9,4.7,9.5,6.9c3.6,2.2,7.7,4.2,12.3,6.1c15.9,6.3,33.8,8.7,52.2,7.4
	c6.3-0.4,12.5-1.4,18.6-2.7c5.6-1.2,11.1-2.9,16.4-5c4.6-1.8,9.1-4,13.4-6.5c3.6-2.1,7.1-4.6,10.3-7.2c16-13.8,20-27.8,20.2-42
	l0.3-164.4l154.2,201.9c4.8,6.6,13.3,14.2,21.2,18.2c29.7,14.1,58.8,9,92-9.1c5.3-3.1,10.4-6.6,15.3-10.4
	c31.1-25.6,44-54.3,25.1-81.1L446.3,997.5z M345.6,906.4c-14.9,16.9-29.7,20.6-44.1,22c-3,0.2-2.3,0.2-12.8,0.6
	c-7.5,0.3-20.6,0.8-33.6,1.4V786.2c13.2,0.1,26.4,0.2,34,0.3s9.7,0.1,11,0.2c1.3,0,1.8,0,2.3,0.1c15.1,0.9,29.3,4.6,43.3,19.8
	c2.8,3.2,5.4,6.8,7.7,10.9C369.8,850.3,365.2,881,345.6,906.4z"/>
<path class="st1" d="M542.7,1363.3c-3-2.4-6.5-4.6-10.3-6.6c-3.9-2-8.1-3.7-12.7-5.1c-9.2-2.7-19.8-3.8-30-2.8
	c-4.9,0.5-9.8,1.4-14.6,2.8c-4.6,1.4-8.9,3.1-12.7,5.1c-3.6,1.8-7,4-10.4,6.6c-3,2.4-5.7,4.9-8,7.4c-12.7,14.6-15.7,29.3-15.9,44.5
	v457.4c0,3.4,0.2,6.7,0.6,10c1.6,11.8,5.2,23.3,15.4,35c2.3,2.6,5,5.1,8,7.5c3.3,2.6,6.8,4.8,10.3,6.6c12.9,6.7,27.6,9.3,42.6,7.9
	c5.1-0.5,10-1.5,14.6-2.8c4.6-1.4,8.8-3.1,12.7-5.1c3.8-2,7.3-4.2,10.3-6.6s5.7-4.9,8-7.5c12.8-14.8,15.8-29.7,16-45v-457.4
	c-0.2-14.8-3.1-29.7-15.9-44.5C548.2,1368,545.6,1365.5,542.7,1363.3z"/>
<path class="st1" d="M935.9,1783.6c-13.9-14.6-27.3-16.3-40.8-9c-13.7,8.5-27.5,16.5-36.4,21.2c-8.9,4.7-12.8,6.2-16.2,7.3
	c-3.4,1.1-6.3,1.8-9.2,2.3c-15.7,2.2-32.6-0.1-46.3-5.1c-6.7-2.4-12.4-5.3-17.2-8.3c-4.3-2.6-8.4-5.8-12.4-9.4
	c-3.1-2.9-6.1-6.1-8.9-9.7c-5.1-6.7-8.5-13.2-11.2-20.1c-7.6-19.5-12.9-40.9-15.6-62.9c-1.5-11.7-2.2-23.6-2.1-35.3
	c-37,0-74.1,0-111.1-0.7c-0.1,14.5,0.4,29.3,1.6,44c2,24.5,5.7,48.9,10.8,70.7c5.1,21.7,11.4,40.8,20.5,60
	c9.1,19.3,20.9,38.8,33.6,55c12.7,16.2,26.3,29.2,40.5,39.5c14.2,10.3,29,17.8,44.6,22.9c15.8,5.1,31.9,7.7,48.1,7.6
	c11.9,0.2,23.8-0.7,35.7-2.7c11-1.9,21.9-4.8,32.6-8.7c10.4-3.8,20.5-8.5,32-17c11.5-8.6,24.5-21,36.4-35.3c1.9-2.2,3.7-4.8,5.3-7.5
	c3.2-5.6,5.6-12.1,6.9-19.2c4.3-23.7-1.1-48.8-13.1-68.8C941.5,1790.3,938.8,1786.7,935.9,1783.6z"/>
<path class="st1" d="M936,1529c-14,14.9-27.4,16.5-40.9,9c-13.6-8.7-27.4-17-36.3-21.9c-8.8-4.9-12.8-6.4-16.2-7.6
	c-3.4-1.1-6.3-1.9-9.2-2.4c-15.7-2.4-32.6,0-46.3,5c-6.7,2.4-12.4,5.3-17.3,8.4c-4.3,2.7-8.5,5.9-12.5,9.5c-3.2,2.9-6.1,6.2-8.9,9.9
	c-5.1,6.8-8.6,13.4-11.3,20.5c-7.7,19.9-13.1,41.8-16,64.3c-1.5,12-2.3,24.2-2.3,36.1c-37-0.2-74.1-0.3-111.1,0.1
	c0-14.8,0.6-29.9,1.8-45.1c2.1-25.1,6-50,11.2-72.3c5.2-22.2,11.6-41.6,20.8-61.3c9.2-19.7,21.1-39.6,33.9-56.1
	c12.8-16.5,26.4-29.7,40.7-40.2c14.3-10.4,29.1-18.1,44.7-23.2c15.8-5.2,32-7.7,48.2-7.5c11.9-0.1,23.8,0.9,35.7,3
	c11,2,21.8,5,32.5,9.1c10.4,3.9,20.4,8.8,31.9,17.6c11.5,8.8,24.3,21.7,36.2,36.3c1.9,2.3,3.6,4.9,5.2,7.7
	c3.2,5.7,5.5,12.4,6.8,19.7c4.2,24.3-1.3,49.9-13.4,70.4C941.7,1522.1,939,1525.8,936,1529z"/>
<path class="st1" d="M1322.3,1396.6c-0.8-4.7-1.9-9.1-3.1-13c-1.1-3.7-2.4-7.2-4-10.6c-1.4-3.1-2.9-5.8-4.5-8.2
	c-8.9-13-17.8-16.1-26.9-16.3h-277.1c-2,0-4.1,0.2-6,0.6c-7.1,1.6-14.1,5.3-21.2,15.8c-1.6,2.4-3.1,5.1-4.5,8.2
	c-1.5,3.4-2.9,6.9-4,10.6c-4,13.2-5.6,28.3-4.8,43.6c0.3,5.2,0.9,10.2,1.7,14.9c0.8,4.7,1.9,9.1,3.1,13c1.2,3.9,2.6,7.5,4,10.6
	c1.4,3.1,3,5.8,4.5,8.2c9,13.1,18,16.2,27.2,16.4h69v382.3c0,3.4,0.2,6.7,0.6,10c1.6,11.8,5.2,23.3,15.4,35c2.3,2.6,5,5.1,8,7.5
	c3.3,2.6,6.8,4.8,10.3,6.6c12.9,6.7,27.6,9.3,42.6,7.9c5.1-0.5,10-1.5,14.6-2.8c4.6-1.4,8.8-3.1,12.7-5.1c3.9-2,7.3-4.2,10.4-6.6
	c3-2.4,5.7-4.9,8-7.5c12.8-14.8,15.8-29.7,16-45v-382.3h69.4c9-0.2,18-3.1,26.9-16.3c1.7-2.5,3.2-5.3,4.5-8.2
	c1.4-3.1,2.8-6.6,4-10.6c1.2-4,2.2-8.3,3.1-13c1.6-9.4,2.3-20.3,1.7-30.7C1323.7,1406.6,1323.1,1401.6,1322.3,1396.6z"/>
<path class="st1" d="M1522.8,1503.2l-1.4,299.6c0.4,30.3,9.1,59.8,45.5,89.5c7.4,5.8,15.3,11.1,23.7,15.6c9.9,5.4,20.3,10.1,31,14
	c12.5,4.5,25.4,8.2,38.5,11c14.7,3.1,29.7,5.2,44.7,6.2c31.2,2.3,63.8,0.1,91.7-5.5c13.1-2.6,25.9-6.1,38.4-10.5
	c10.7-3.8,21-8.3,30.9-13.6c8.4-4.5,16.3-9.6,23.7-15.3c29.2-23,40-46.3,44.7-69.6c1.2-6.5,1.8-13,1.9-19.6l1.2-298.5
	c-0.1-12.5-3.3-24.6-17.6-36.7c-2.8-2.3-5.8-4.4-9-6.2c-3.7-2.1-7.6-4-11.7-5.5c-4.3-1.7-9.2-3.1-14.4-4.3c-5.4-1.2-11-2-16.6-2.4
	c-17.1-1.3-33.9,0.8-48.7,6.2c-4.1,1.5-8.1,3.3-11.9,5.4c-3.2,1.8-6.3,3.8-9.2,6.1c-14.8,12.2-18.1,24.5-18.4,36.7l-1.8,277.8
	c-0.5,11.4-2.9,22.3-18.8,32.8c-24.2,13.1-46.3,10.1-64.5-0.2c-16.4-11.2-18-22.2-18.4-32.9l2.1-279.2c-0.2-12.3-3.5-24.3-17.8-36.2
	c-2.6-2.1-5.6-4.2-9-6.1c-3.4-1.9-7.3-3.8-11.6-5.4c-4.3-1.6-9.1-3.1-14.3-4.2c-5.4-1.2-10.9-1.9-16.4-2.4
	c-16.9-1.2-33.5,0.9-48.1,6.2c-4,1.5-7.9,3.2-11.7,5.3c-3.2,1.8-6.2,3.8-9,6C1526.4,1479.1,1523.1,1491.2,1522.8,1503.2z"/>
<path class="st1" d="M1934.5,1822.8l3.8-324.3c-0.2-32.8-8.6-64.8-44.6-97.2c-7.3-6.3-15.2-12.1-23.5-17.1
	c-9.8-6-20.1-11.1-30.8-15.4c-12.4-5-25.2-9.1-38.3-12.1c-14.6-3.4-29.5-5.8-44.5-7c-31-2.7-63.6-0.6-91.4,5.4
	c-13,2.7-25.8,6.4-38.3,11.1c-10.7,4-21,8.9-30.9,14.5c-8.4,4.8-16.3,10.3-23.8,16.5c-29.3,24.7-40.3,49.8-45.1,75.1
	c-1.3,7-1.9,14.1-2,21.2l-3.6,323.2c0,13.5,3.1,26.7,17.2,39.9c2.8,2.5,5.7,4.8,8.9,6.7c3.7,2.3,7.6,4.3,11.6,6
	c4.3,1.8,9.1,3.4,14.3,4.7c5.4,1.3,10.9,2.2,16.5,2.7c17,1.5,33.8-0.7,48.5-6.4c4.1-1.6,8.1-3.5,11.9-5.8c3.2-1.9,6.3-4.1,9.2-6.6
	c14.8-13.1,18.3-26.4,18.7-39.6l4-300.7c0.6-12.3,3.1-24.1,19-35.4c24.2-14,46.2-10.6,64.2,0.7c16.3,12.2,17.8,24.2,18.1,35.7
	l-4.3,302.3c0.1,13.3,3.3,26.3,17.4,39.3c2.6,2.3,5.5,4.5,8.9,6.7c3.4,2.1,7.2,4.1,11.6,5.9c4.3,1.8,9.1,3.4,14.2,4.6
	c5.4,1.3,10.8,2.2,16.4,2.7c16.8,1.4,33.3-0.7,47.9-6.4c4-1.6,7.9-3.5,11.7-5.7c3.2-1.9,6.2-4,9-6.4
	C1930.7,1848.8,1934.1,1835.8,1934.5,1822.8z"/>
<rect x="56.7" y="648" class="st2" width="2347.8" height="1292"/>
<path d="M2332.3,2425.4c3.1-6.6,3.5-12.6,0.9-20.9c-1.2-3.5-4.5-7.1-7.4-8.6c-3.3-1.9-6.4-2.7-10.4-3.3c-2.7-0.4-5.4-0.5-8.1-0.5
	h-29.6v78.1h11.8v-33.9h13.6l20.5,33.9h13.2l-22.1-34.4C2320.3,2435,2328.2,2432.8,2332.3,2425.4L2332.3,2425.4z M2303.6,2426.2
	h-14.1v-24.2c9.7,0.4,21.1-1.4,28,2.3c7.3,4.7,5.7,12.6,2.8,17.2c-2.8,3.1-4.6,3.6-9,4.3C2309.3,2426.1,2306.4,2426.2,2303.6,2426.2
	L2303.6,2426.2z"/>
<path d="M2368.9,2410.6c-4.2-13.6-12.8-25.6-24.3-34c-18.7-13.3-40.6-16.6-62.4-9.9c-7,2.2-13.6,5.6-19.5,9.9
	c-5.9,4.3-11,9.5-15.1,15.2c-12.6,18.1-15.3,38.9-9.3,59.6c2.1,6.6,5.2,13,9.3,18.8c4.1,5.8,9.2,11,15.1,15.3
	c18.5,13.2,40.8,16.7,62.5,9.9c7-2.3,13.5-5.6,19.4-9.9c5.8-4.3,10.9-9.4,15.1-15.3C2372.1,2452.2,2375,2431.1,2368.9,2410.6
	L2368.9,2410.6z M2348.1,2464.6c-6.6,9.6-16.3,16.7-27.4,20.2c-17.3,5.3-35,2.7-49.6-7.8c-4.7-3.4-8.8-7.6-12.1-12.4
	c-3.4-4.8-5.9-10.1-7.7-15.9s-2.6-11.8-2.6-17.8c0-11.6,3.3-23.5,10.3-33.5c3.4-4.8,7.5-8.9,12.2-12.4c4.7-3.4,9.9-6,15.4-7.8
	c17.2-5.2,34.5-2.8,49.3,7.8c4.7,3.4,8.8,7.6,12.1,12.4c3.4,4.8,6,10.2,7.7,15.8C2361,2431.2,2358.4,2449.6,2348.1,2464.6
	L2348.1,2464.6z"/>
<ellipse class="st3" cx="688" cy="125" rx="22.8" ry="22.2"/>
<ellipse class="st3" cx="95.8" cy="518.9" rx="22.8" ry="22.2"/>
<ellipse class="st3" cx="1698.4" cy="125" rx="22.8" ry="22.2"/>
<ellipse class="st3" cx="697.6" cy="384.5" rx="22.8" ry="22.2"/>
<ellipse class="st3" cx="766.3" cy="226.7" rx="22.8" ry="22.2"/>
<ellipse class="st3" cx="1617.1" cy="332" rx="22.8" ry="22.2"/>
<ellipse class="st3" cx="1839.2" cy="512.5" rx="22.8" ry="22.2"/>
<ellipse class="st3" cx="1016.7" cy="512.5" rx="22.8" ry="22.2"/>
<ellipse class="st3" cx="302.6" cy="490.4" rx="22.8" ry="22.2"/>
<ellipse class="st3" cx="1501.3" cy="416.7" rx="22.8" ry="22.2"/>
<ellipse class="st3" cx="1331.1" cy="236.9" rx="22.8" ry="22.2"/>
<ellipse class="st3" cx="1114.7" cy="73" rx="22.8" ry="22.2"/>
<ellipse class="st3" cx="883.3" cy="384.5" rx="22.8" ry="22.2"/>
<ellipse class="st3" cx="652.1" cy="490.4" rx="22.8" ry="22.2"/>
<ellipse class="st3" cx="1227.5" cy="428.8" rx="22.8" ry="22.2"/>
<ellipse class="st3" cx="1175.8" cy="204.6" rx="22.8" ry="22.2"/>
<ellipse class="st3" cx="1092" cy="337.4" rx="22.8" ry="22.2"/>
<ellipse class="st3" cx="294.3" cy="303.4" rx="22.8" ry="22.2"/>
<ellipse class="st3" cx="1360" cy="340.2" rx="22.8" ry="22.2"/>
<ellipse class="st3" cx="497.4" cy="372.3" rx="22.8" ry="22.2"/>
<ellipse class="st3" cx="2128" cy="468.2" rx="22.8" ry="22.2"/>
<ellipse class="st3" cx="2235.2" cy="384.5" rx="22.8" ry="22.2"/>
<ellipse class="st3" cx="1811.7" cy="332" rx="22.8" ry="22.2"/>
<ellipse class="st3" cx="2036" cy="281.2" rx="22.8" ry="22.2"/>
<ellipse class="st3" cx="1850" cy="160.3" rx="22.8" ry="22.2"/>
<ellipse class="st3" cx="1546.9" cy="160.3" rx="22.8" ry="22.2"/>
<ellipse class="st3" cx="883.3" cy="112" rx="22.8" ry="22.2"/>
<ellipse class="st3" cx="1422.2" cy="125" rx="22.8" ry="22.2"/>
<ellipse class="st3" cx="1915.5" cy="248.9" rx="22.8" ry="22.2"/>
<ellipse class="st3" cx="1955.2" cy="372.3" rx="22.8" ry="22.2"/>
<ellipse class="st3" cx="1345.6" cy="518.9" rx="22.8" ry="22.2"/>
<ellipse class="st3" cx="1617.1" cy="534.7" rx="22.8" ry="22.2"/>
<ellipse class="st3" cx="1287.9" cy="50.9" rx="22.8" ry="22.2"/>
<ellipse class="st3" cx="993.9" cy="236.9" rx="22.8" ry="22.2"/>
<ellipse class="st3" cx="536" cy="204.6" rx="22.8" ry="22.2"/>
</svg>
